<svg width="35" height="35" viewBox="0 0 35 35" fill="none" xmlns="http://www.w3.org/2000/svg">
<path d="M17.5 17.5C18.1962 17.5 18.8639 17.7766 19.3562 18.2688C19.8484 18.7611 20.125 19.4288 20.125 20.125C20.125 20.8212 19.8484 21.4889 19.3562 21.9812C18.8639 22.4734 18.1962 22.75 17.5 22.75C16.8038 22.75 16.1361 22.4734 15.6438 21.9812C15.1516 21.4889 14.875 20.8212 14.875 20.125C14.875 19.4288 15.1516 18.7611 15.6438 18.2688C16.1361 17.7766 16.8038 17.5 17.5 17.5ZM17.5 0C19.7981 0 22.0738 0.452651 24.197 1.33211C26.3202 2.21157 28.2493 3.50061 29.8744 5.12563C31.4994 6.75066 32.7884 8.67984 33.6679 10.803C34.5474 12.9262 35 15.2019 35 17.5C35 22.1413 33.1563 26.5925 29.8744 29.8744C26.5925 33.1563 22.1413 35 17.5 35C15.2019 35 12.9262 34.5474 10.803 33.6679C8.67984 32.7884 6.75066 31.4994 5.12563 29.8744C1.84374 26.5925 0 22.1413 0 17.5C0 12.8587 1.84374 8.40752 5.12563 5.12563C8.40752 1.84374 12.8587 0 17.5 0ZM17.5 24.5C18.76 24.5 19.95 24.7625 21.07 25.375C22.19 25.9 22.75 26.6 22.75 27.4225V30.4675C25.095 29.4175 26.25 28.14 26.25 26.6V18.9C26.25 17.5 25.375 16.3625 23.5375 15.4C21.7 14.455 19.6875 14 17.5 14C15.3125 14 13.3 14.455 11.4625 15.4C9.625 16.3625 8.75 17.5 8.75 18.9V26.6C8.75 28 9.6775 29.2075 11.6025 30.135C13.51 31.0625 15.47 31.5 17.5 31.5L19.25 31.36V27.8425L17.5 28C15.75 28 14 27.65 12.3375 26.9325C12.5475 26.25 13.1775 25.7075 14.2275 25.2175C15.26 24.7275 16.345 24.5 17.5 24.5ZM17.5 3.5C16.3397 3.5 15.2269 3.96094 14.4064 4.78141C13.5859 5.60188 13.125 6.71468 13.125 7.875C13.125 9.03532 13.5859 10.1481 14.4064 10.9686C15.2269 11.7891 16.3397 12.25 17.5 12.25C18.6603 12.25 19.7731 11.7891 20.5936 10.9686C21.4141 10.1481 21.875 9.03532 21.875 7.875C21.875 6.71468 21.4141 5.60188 20.5936 4.78141C19.7731 3.96094 18.6603 3.5 17.5 3.5Z" fill="#DD1B10"/>
</svg>
