<svg width="35" height="35" viewBox="0 0 35 35" fill="none" xmlns="http://www.w3.org/2000/svg">
<path d="M31.5854 26.25C32.491 26.25 33.3595 25.8813 33.9999 25.2249C34.6402 24.5685 35 23.6783 35 22.75V3.5C35 2.57174 34.6402 1.6815 33.9999 1.02513C33.3595 0.368749 32.491 0 31.5854 0H13.5902C14.1878 1.0675 14.5122 2.275 14.5122 3.5H31.5854V22.75H16.2195V26.25M23.0488 8.75V12.25H12.8049V35H9.39024V24.5H5.97561V35H2.56098V21H0V12.25C0 11.3217 0.359755 10.4315 1.00012 9.77513C1.64049 9.11875 2.50902 8.75 3.41463 8.75H23.0488ZM11.0976 3.5C11.0976 4.42826 10.7378 5.3185 10.0974 5.97487C9.45707 6.63125 8.58854 7 7.68293 7C6.77731 7 5.90878 6.63125 5.26842 5.97487C4.62805 5.3185 4.26829 4.42826 4.26829 3.5C4.26829 2.57174 4.62805 1.6815 5.26842 1.02513C5.90878 0.368749 6.77731 0 7.68293 0C8.58854 0 9.45707 0.368749 10.0974 1.02513C10.7378 1.6815 11.0976 2.57174 11.0976 3.5Z" fill="#464590"/>
</svg>
